# xmcd CD database file
#
# Track frame offsets:
#	150
#	21685
#	40385
#	65392
#	89137
#	106782
#	133232
#	148707
#	167360
#	191285
#	213807
#
# Disc length: 3196 seconds
#
# Revision: 0
# Processed by: cddbd v1.4PL0 Copyright (c) Steve Scherf et al.
# Submitted via: Feurio! 1.65 - http://www.feurio.com
#
DISCID=9d0c7a0b
DTITLE=Chris "Hammer" Smith - Down But Not Out
DYEAR=1994
DGENRE=Blues
TTITLE0=Set You Free
TTITLE1=Paths I Haven't tried
TTITLE2=I Want To Get Nasty
TTITLE3=Little Boy Blue
TTITLE4=Another Sane Day In New Orleans
TTITLE5=World Of Pain
TTITLE6=Hammerology
TTITLE7=Down But Not Out
TTITLE8=Cheatin' Woman Blues
TTITLE9=Got A Date With The Blues
TTITLE10=Past The Test Of Time
EXTD=ARD Herman's HE 004-2 1994
EXTT0=
EXTT1=
EXTT2=
EXTT3=
EXTT4=
EXTT5=
EXTT6=
EXTT7=
EXTT8=
EXTT9=
EXTT10=
PLAYORDER=
